<?xml version="1.0" encoding="utf-8"?>
<!-- Generator: Adobe Illustrator 15.1.0, SVG Export Plug-In . SVG Version: 6.00 Build 0)  -->
<!DOCTYPE svg PUBLIC "-//W3C//DTD SVG 1.1//EN" "http://www.w3.org/Graphics/SVG/1.1/DTD/svg11.dtd">
<svg version="1.1" id="Layer_1" xmlns="http://www.w3.org/2000/svg" xmlns:xlink="http://www.w3.org/1999/xlink" x="0px" y="0px"
	 width="110.471px" height="38.18px" viewBox="0 0 110.471 38.18" enable-background="new 0 0 110.471 38.18" xml:space="preserve">
<path fill="#F2F2F2" stroke="#000000" stroke-miterlimit="10" d="M109.816,34.533c0,1.894-3.807,3.146-9.118,3.146H10.441
	c-5.312,0-9.625-1.252-9.625-3.146V3.609c0-1.894,4.313-2.93,9.625-2.93h90.257c5.312,0,9.118,1.036,9.118,2.93V34.533z"/>
<polyline fill="#666666" stroke="#000000" stroke-miterlimit="10" points="68.816,15.647 59.213,15.258 58.918,6.68 52.612,6.68 
	53.43,15.384 44.816,15.579 44.816,20.68 53.816,20.68 53.816,30.246 59.338,30.68 59.728,20.109 68.824,20.664 68.816,15.18 "/>
</svg>
