<?xml version="1.0" encoding="utf-8"?>
<!-- Generator: Adobe Illustrator 15.1.0, SVG Export Plug-In . SVG Version: 6.00 Build 0)  -->
<!DOCTYPE svg PUBLIC "-//W3C//DTD SVG 1.1//EN" "http://www.w3.org/Graphics/SVG/1.1/DTD/svg11.dtd">
<svg version="1.1" id="Layer_1" xmlns="http://www.w3.org/2000/svg" xmlns:xlink="http://www.w3.org/1999/xlink" x="0px" y="0px"
	 width="131.031px" height="51px" viewBox="0 0 131.031 51" enable-background="new 0 0 131.031 51" xml:space="preserve">
<path fill="#F2F2F2" stroke="#000000" stroke-miterlimit="10" d="M130.516,46.229c0,2.571-4.163,4.271-10.517,4.271H12.029
	c-6.354,0-11.514-1.7-11.514-4.271V4.256c0-2.571,5.16-3.756,11.514-3.756h107.969c6.354,0,10.517,1.186,10.517,3.756V46.229z"/>
<g>
	<path fill="#0000FF" d="M26.465,28.718c0,2.462-0.624,4.375-1.87,5.737c-1.247,1.362-3.091,2.044-5.533,2.044
		c-0.918,0-1.913-0.071-2.982-0.212v5.496c0,0.171-0.061,0.318-0.182,0.439s-0.268,0.182-0.439,0.182h-2.846
		c-0.172,0-0.318-0.066-0.439-0.197c-0.121-0.131-0.182-0.272-0.182-0.424V20.195c0-0.242,0.053-0.418,0.159-0.53
		c0.106-0.111,0.33-0.212,0.673-0.303c2.059-0.535,4.138-0.802,6.237-0.802c1.645,0,3.017,0.308,4.118,0.923
		c1.1,0.616,1.922,1.509,2.467,2.68c0.545,1.171,0.818,2.564,0.818,4.178V28.718z M22.377,28.718v-2.377
		c0-1.413-0.24-2.505-0.719-3.277c-0.479-0.772-1.345-1.158-2.596-1.158c-0.646,0-1.214,0.018-1.703,0.053
		c-0.49,0.036-0.916,0.089-1.279,0.159v10.824c1.009,0.142,2.003,0.212,2.982,0.212c1.251,0,2.117-0.388,2.596-1.166
		C22.137,31.211,22.377,30.121,22.377,28.718z"/>
	<path fill="#0000FF" d="M36.85,36.5c-1.302,0-2.549-0.24-3.739-0.719c-1.191-0.479-2.183-1.299-2.975-2.46
		c-0.792-1.16-1.188-2.695-1.188-4.602v-2.286c0-1.584,0.29-2.977,0.871-4.178c0.58-1.201,1.431-2.117,2.551-2.748
		c1.12-0.63,2.458-0.946,4.012-0.946c1.554,0,2.889,0.333,4.004,0.999c1.115,0.666,1.958,1.59,2.528,2.771
		c0.57,1.181,0.855,2.549,0.855,4.103v1.726c0,0.525-0.207,0.788-0.621,0.788H33.035v0.091c0,1.171,0.292,2.119,0.878,2.846
		c0.585,0.727,1.67,1.09,3.255,1.09c0.868,0,1.807-0.088,2.816-0.265c1.009-0.176,1.836-0.365,2.483-0.568
		c0.434-0.131,0.651,0.03,0.651,0.485v1.832c0,0.202-0.053,0.358-0.159,0.469c-0.106,0.111-0.27,0.222-0.492,0.333
		c-0.636,0.333-1.464,0.624-2.483,0.871C38.964,36.375,37.919,36.5,36.85,36.5z M39.65,26.023v-0.121c0-1.251-0.293-2.2-0.878-2.846
		c-0.586-0.646-1.383-0.969-2.392-0.969c-0.646,0-1.219,0.139-1.718,0.417c-0.5,0.278-0.891,0.699-1.173,1.264
		c-0.283,0.566-0.424,1.277-0.424,2.135v0.121H39.65z"/>
	<path fill="#0000FF" d="M55.304,22.057c-0.202-0.01-0.399-0.017-0.59-0.023c-0.192-0.005-0.46-0.007-0.803-0.007
		c-0.949,0-1.963,0.111-3.042,0.333v13.246c0,0.182-0.059,0.336-0.174,0.462c-0.116,0.126-0.265,0.189-0.446,0.189h-2.846
		c-0.182,0-0.331-0.068-0.447-0.204c-0.116-0.136-0.174-0.285-0.174-0.447V20.104c0-0.303,0.207-0.509,0.621-0.621
		c1.029-0.282,2.137-0.507,3.323-0.673c1.186-0.167,2.288-0.25,3.308-0.25c0.525,0,0.949,0.021,1.272,0.061
		c0.414,0.041,0.621,0.237,0.621,0.59v2.226C55.924,21.851,55.717,22.057,55.304,22.057z"/>
	<path fill="#0000FF" d="M67.884,14.866c0,0.354-0.157,0.53-0.469,0.53h-1.393c-0.525,0-0.908,0.048-1.15,0.144
		c-0.242,0.096-0.416,0.28-0.522,0.552c-0.106,0.273-0.159,0.662-0.159,1.166v1.514h2.982c0.171,0,0.318,0.061,0.439,0.182
		s0.182,0.268,0.182,0.439v1.862c0,0.162-0.063,0.3-0.189,0.416c-0.126,0.116-0.27,0.174-0.431,0.174H64.19v13.761
		c0,0.182-0.059,0.336-0.174,0.462c-0.116,0.126-0.265,0.189-0.446,0.189h-2.816c-0.172,0-0.323-0.065-0.454-0.197
		c-0.131-0.131-0.197-0.282-0.197-0.454V21.845l-2.755-0.439c-0.414-0.07-0.621-0.267-0.621-0.59v-1.423
		c0-0.171,0.058-0.318,0.174-0.439c0.116-0.121,0.265-0.182,0.446-0.182h2.755v-1.514c0-1.282,0.217-2.288,0.651-3.021
		c0.434-0.731,1.037-1.238,1.809-1.521c0.772-0.282,1.738-0.424,2.899-0.424c0.454,0,1.075,0.081,1.862,0.242
		c0.373,0.091,0.56,0.257,0.56,0.5V14.866z"/>
	<path fill="#0000FF" d="M83.825,28.779c0,1.474-0.286,2.8-0.855,3.981c-0.57,1.181-1.411,2.099-2.521,2.755
		c-1.11,0.657-2.458,0.984-4.042,0.984c-1.564,0-2.907-0.328-4.027-0.984c-1.12-0.656-1.963-1.574-2.528-2.755
		c-0.565-1.181-0.848-2.508-0.848-3.981v-2.498c0-1.473,0.282-2.801,0.848-3.981s1.408-2.099,2.528-2.755
		c1.12-0.656,2.462-0.984,4.027-0.984c1.584,0,2.932,0.328,4.042,0.984c1.11,0.657,1.95,1.575,2.521,2.755
		c0.57,1.181,0.855,2.508,0.855,3.981V28.779z M79.737,28.779v-2.498c0-1.292-0.286-2.313-0.855-3.065
		c-0.57-0.751-1.396-1.128-2.475-1.128c-1.07,0-1.89,0.376-2.46,1.128c-0.57,0.752-0.855,1.774-0.855,3.065v2.498
		c0,1.292,0.288,2.314,0.863,3.065c0.576,0.752,1.393,1.128,2.453,1.128c1.069,0,1.893-0.376,2.468-1.128
		C79.45,31.093,79.737,30.071,79.737,28.779z"/>
	<path fill="#0000FF" d="M95.36,22.057c-0.202-0.01-0.399-0.017-0.59-0.023c-0.192-0.005-0.46-0.007-0.803-0.007
		c-0.949,0-1.963,0.111-3.042,0.333v13.246c0,0.182-0.059,0.336-0.174,0.462c-0.116,0.126-0.265,0.189-0.446,0.189h-2.846
		c-0.182,0-0.331-0.068-0.447-0.204c-0.116-0.136-0.174-0.285-0.174-0.447V20.104c0-0.303,0.207-0.509,0.621-0.621
		c1.029-0.282,2.137-0.507,3.323-0.673c1.186-0.167,2.288-0.25,3.308-0.25c0.525,0,0.949,0.021,1.272,0.061
		c0.414,0.041,0.621,0.237,0.621,0.59v2.226C95.981,21.851,95.774,22.057,95.36,22.057z"/>
	<path fill="#0000FF" d="M111.286,35.606c0,0.182-0.059,0.336-0.174,0.462c-0.116,0.126-0.265,0.189-0.446,0.189h-2.846
		c-0.182,0-0.331-0.068-0.447-0.204c-0.116-0.136-0.174-0.285-0.174-0.447V25.373c0-0.837-0.086-1.494-0.257-1.968
		c-0.172-0.474-0.472-0.822-0.901-1.044c-0.429-0.222-1.037-0.333-1.824-0.333c-0.605,0-1.277,0.101-2.014,0.303v13.276
		c0,0.182-0.058,0.336-0.174,0.462c-0.116,0.126-0.265,0.189-0.447,0.189h-2.846c-0.182,0-0.331-0.068-0.447-0.204
		c-0.116-0.136-0.174-0.285-0.174-0.447V20.104c0-0.272,0.207-0.479,0.621-0.621c0.787-0.272,1.726-0.494,2.815-0.666
		c1.09-0.171,2.039-0.257,2.846-0.257c2.12,0,3.714,0.399,4.784,1.196c0.777-0.343,1.625-0.628,2.543-0.855
		c0.918-0.227,1.816-0.341,2.695-0.341c1.968,0,3.451,0.545,4.451,1.635c0.999,1.09,1.499,2.806,1.499,5.147v10.264
		c0,0.182-0.059,0.336-0.174,0.462c-0.116,0.126-0.265,0.189-0.446,0.189h-2.846c-0.182,0-0.331-0.068-0.446-0.204
		c-0.117-0.136-0.174-0.285-0.174-0.447V25.373c0-0.827-0.079-1.481-0.235-1.96c-0.157-0.479-0.424-0.83-0.802-1.052
		c-0.378-0.222-0.901-0.333-1.567-0.333c-0.838,0-1.736,0.197-2.694,0.59c0.202,0.858,0.303,1.767,0.303,2.725V35.606z"/>
</g>
</svg>
