<?xml version="1.0" encoding="utf-8"?>
<!-- Generator: Adobe Illustrator 15.1.0, SVG Export Plug-In . SVG Version: 6.00 Build 0)  -->
<!DOCTYPE svg PUBLIC "-//W3C//DTD SVG 1.1//EN" "http://www.w3.org/Graphics/SVG/1.1/DTD/svg11.dtd">
<svg version="1.1" xmlns="http://www.w3.org/2000/svg" xmlns:xlink="http://www.w3.org/1999/xlink" x="0px" y="0px" width="1080px"
	 height="137.821px" viewBox="0 0 1080 137.821" enable-background="new 0 0 1080 137.821" xml:space="preserve">
<g id="Layer_1" display="none">
</g>
<g id="Layer_2">
	<g>
		<path fill="#FFFFFF" d="M165.307,132.442c5.226,0,7.84-1.828,7.84-5.484c0-1.125-0.375-2.086-1.125-2.883
			c-0.75-0.796-2.168-1.734-4.254-2.813l-7.277-3.727c-2.391-1.266-4.213-2.742-5.467-4.43c-1.254-1.688-1.881-3.714-1.881-6.082
			c0-2.484,0.645-4.447,1.934-5.889c1.289-1.441,2.953-2.455,4.992-3.041c2.039-0.585,4.312-0.879,6.82-0.879
			c1.945,0,3.885,0.211,5.818,0.633s3.357,0.891,4.271,1.406c0.375,0.211,0.633,0.381,0.773,0.51
			c0.141,0.129,0.211,0.381,0.211,0.756v2.953c0,0.422-0.146,0.733-0.439,0.932c-0.293,0.199-0.698,0.206-1.213,0.018
			c-1.336-0.515-2.889-0.943-4.658-1.283c-1.77-0.339-3.357-0.51-4.764-0.51c-2.25,0-4.049,0.281-5.396,0.844
			c-1.348,0.563-2.021,1.723-2.021,3.48c0,1.219,0.387,2.256,1.16,3.111c0.773,0.856,2.039,1.74,3.797,2.654l7.137,3.656
			c2.016,1.032,3.598,2.074,4.746,3.129c1.148,1.055,1.963,2.157,2.443,3.305c0.48,1.148,0.721,2.438,0.721,3.867
			c0,2.461-0.61,4.53-1.828,6.205c-1.219,1.676-2.895,2.918-5.027,3.727c-2.133,0.809-4.57,1.213-7.313,1.213
			c-2.086,0-4.131-0.241-6.135-0.721s-3.557-1.002-4.658-1.564c-0.68-0.352-1.02-0.785-1.02-1.301v-2.953
			c0-0.422,0.152-0.738,0.457-0.949c0.304-0.211,0.703-0.211,1.195,0C158.732,131.739,162.119,132.442,165.307,132.442z"/>
		<path fill="#FFFFFF" d="M201.588,132.301c1.594,0,3.158-0.152,4.693-0.457c1.535-0.304,3.035-0.708,4.5-1.213
			c1.464-0.504,2.642-0.932,3.533-1.283c0.515-0.234,0.919-0.251,1.213-0.053c0.293,0.199,0.439,0.522,0.439,0.967v2.953
			c0,0.492-0.329,0.926-0.984,1.301c-4.172,2.203-8.637,3.305-13.395,3.305c-3,0-5.725-0.533-8.174-1.6
			c-2.449-1.066-4.424-2.883-5.924-5.449c-1.5-2.566-2.25-5.971-2.25-10.213v-6.504c0-5.203,1.4-9.311,4.201-12.322
			c2.8-3.011,6.732-4.518,11.795-4.518c3.398,0,6.287,0.686,8.666,2.057c2.378,1.371,4.166,3.334,5.361,5.889
			c1.195,2.555,1.793,5.52,1.793,8.895v3.902c0,1.055-0.457,1.582-1.371,1.582h-24.117v1.02c0,4.172,0.814,7.172,2.443,9
			C195.641,131.387,198.166,132.301,201.588,132.301z M210.658,114.723v-0.668c0-2.648-0.346-4.816-1.037-6.504
			c-0.691-1.688-1.729-2.906-3.111-3.656c-1.383-0.75-3.141-1.125-5.273-1.125c-6.446,0-9.668,3.762-9.668,11.285v0.668H210.658z"/>
		<path fill="#FFFFFF" d="M254.357,112.262v23.625c0,0.399-0.153,0.738-0.457,1.02c-0.305,0.281-0.633,0.422-0.984,0.422h-3.445
			c-0.399,0-0.738-0.141-1.02-0.422s-0.422-0.621-0.422-1.02v-23.625c0-2.391-0.287-4.289-0.861-5.695
			c-0.575-1.406-1.477-2.414-2.707-3.023c-1.23-0.609-2.83-0.914-4.799-0.914c-2.953,0-6.047,0.434-9.281,1.301v31.957
			c0,0.375-0.146,0.709-0.439,1.002c-0.293,0.293-0.627,0.439-1.002,0.439h-3.516c-0.352,0-0.668-0.141-0.949-0.422
			s-0.422-0.621-0.422-1.02v-34.699c0-0.891,0.434-1.464,1.301-1.723c5.836-1.5,10.793-2.25,14.871-2.25
			c2.695,0,4.975,0.334,6.838,1.002s3.316,1.635,4.359,2.9c1.042,1.266,1.793,2.807,2.25,4.623
			C254.129,107.557,254.357,109.731,254.357,112.262z"/>
		<path fill="#FFFFFF" d="M273.342,132.442c5.226,0,7.84-1.828,7.84-5.484c0-1.125-0.375-2.086-1.125-2.883
			c-0.75-0.796-2.168-1.734-4.254-2.813l-7.277-3.727c-2.391-1.266-4.213-2.742-5.467-4.43c-1.254-1.688-1.881-3.714-1.881-6.082
			c0-2.484,0.645-4.447,1.934-5.889c1.289-1.441,2.953-2.455,4.992-3.041c2.039-0.585,4.312-0.879,6.82-0.879
			c1.945,0,3.885,0.211,5.818,0.633s3.357,0.891,4.271,1.406c0.375,0.211,0.633,0.381,0.773,0.51
			c0.141,0.129,0.211,0.381,0.211,0.756v2.953c0,0.422-0.146,0.733-0.439,0.932c-0.293,0.199-0.698,0.206-1.213,0.018
			c-1.336-0.515-2.889-0.943-4.658-1.283c-1.77-0.339-3.357-0.51-4.764-0.51c-2.25,0-4.049,0.281-5.396,0.844
			c-1.348,0.563-2.021,1.723-2.021,3.48c0,1.219,0.387,2.256,1.16,3.111c0.773,0.856,2.039,1.74,3.797,2.654l7.137,3.656
			c2.016,1.032,3.598,2.074,4.746,3.129c1.148,1.055,1.963,2.157,2.443,3.305c0.48,1.148,0.721,2.438,0.721,3.867
			c0,2.461-0.61,4.53-1.828,6.205c-1.219,1.676-2.895,2.918-5.027,3.727c-2.133,0.809-4.57,1.213-7.313,1.213
			c-2.086,0-4.131-0.241-6.135-0.721s-3.557-1.002-4.658-1.564c-0.68-0.352-1.02-0.785-1.02-1.301v-2.953
			c0-0.422,0.152-0.738,0.457-0.949c0.304-0.211,0.703-0.211,1.195,0C266.768,131.739,270.154,132.442,273.342,132.442z"/>
		<path fill="#FFFFFF" d="M325.303,120.278c0,5.391-1.377,9.663-4.131,12.814c-2.754,3.152-6.721,4.729-11.9,4.729
			c-5.156,0-9.111-1.576-11.865-4.729c-2.754-3.152-4.131-7.423-4.131-12.814v-5.484c0-5.414,1.376-9.697,4.131-12.85
			c2.754-3.152,6.709-4.729,11.865-4.729c5.18,0,9.146,1.577,11.9,4.729c2.754,3.152,4.131,7.436,4.131,12.85V120.278z
			 M318.975,120.278v-5.484c0-2.508-0.346-4.658-1.037-6.451c-0.691-1.793-1.758-3.169-3.199-4.131
			c-1.441-0.961-3.264-1.441-5.467-1.441c-3.258,0-5.684,1.049-7.277,3.146c-1.594,2.098-2.391,5.057-2.391,8.877v5.484
			c0,8.016,3.222,12.023,9.668,12.023c3.257,0,5.689-1.042,7.295-3.129C318.171,127.086,318.975,124.122,318.975,120.278z"/>
		<path fill="#FFFFFF" d="M347.064,97.145c1.898,0,3.527,0.118,4.887,0.352c0.515,0.094,0.849,0.252,1.002,0.475
			c0.152,0.223,0.229,0.568,0.229,1.037v2.602c0,0.492-0.094,0.826-0.281,1.002c-0.188,0.176-0.551,0.252-1.09,0.229
			c-1.641-0.093-3.223-0.141-4.746-0.141c-3,0-5.859,0.364-8.578,1.09v32.098c0,0.375-0.146,0.709-0.439,1.002
			c-0.293,0.293-0.627,0.439-1.002,0.439h-3.516c-0.352,0-0.668-0.141-0.949-0.422s-0.422-0.621-0.422-1.02v-34.84
			c0-0.891,0.434-1.464,1.301-1.723c2.742-0.773,5.197-1.33,7.365-1.67C342.992,97.315,345.072,97.145,347.064,97.145z"/>
		<path fill="#FFFFFF" d="M369.354,132.442c5.226,0,7.84-1.828,7.84-5.484c0-1.125-0.375-2.086-1.125-2.883
			c-0.75-0.796-2.168-1.734-4.254-2.813l-7.277-3.727c-2.391-1.266-4.213-2.742-5.467-4.43c-1.254-1.688-1.881-3.714-1.881-6.082
			c0-2.484,0.645-4.447,1.934-5.889c1.289-1.441,2.953-2.455,4.992-3.041c2.039-0.585,4.312-0.879,6.82-0.879
			c1.945,0,3.885,0.211,5.818,0.633s3.357,0.891,4.271,1.406c0.375,0.211,0.633,0.381,0.773,0.51
			c0.141,0.129,0.211,0.381,0.211,0.756v2.953c0,0.422-0.146,0.733-0.439,0.932c-0.293,0.199-0.698,0.206-1.213,0.018
			c-1.336-0.515-2.889-0.943-4.658-1.283c-1.77-0.339-3.357-0.51-4.764-0.51c-2.25,0-4.049,0.281-5.396,0.844
			c-1.348,0.563-2.021,1.723-2.021,3.48c0,1.219,0.387,2.256,1.16,3.111c0.773,0.856,2.039,1.74,3.797,2.654l7.137,3.656
			c2.016,1.032,3.598,2.074,4.746,3.129c1.148,1.055,1.963,2.157,2.443,3.305c0.48,1.148,0.721,2.438,0.721,3.867
			c0,2.461-0.61,4.53-1.828,6.205c-1.219,1.676-2.895,2.918-5.027,3.727c-2.133,0.809-4.57,1.213-7.313,1.213
			c-2.086,0-4.131-0.241-6.135-0.721s-3.557-1.002-4.658-1.564c-0.68-0.352-1.02-0.785-1.02-1.301v-2.953
			c0-0.422,0.152-0.738,0.457-0.949c0.304-0.211,0.703-0.211,1.195,0C362.779,131.739,366.166,132.442,369.354,132.442z"/>
	</g>
	<g>
		<path fill="#FFFFFF" d="M691.928,134.586c0,0.891-0.363,1.418-1.09,1.582c-1.875,0.54-3.768,0.949-5.678,1.23
			s-4.072,0.422-6.486,0.422c-5.602,0-9.627-0.943-12.076-2.83c-2.449-1.886-3.674-4.904-3.674-9.053v-0.633
			c0-2.695,0.568-4.898,1.705-6.609c1.137-1.71,2.977-2.982,5.52-3.814c2.543-0.832,5.912-1.248,10.107-1.248h5.344v-2.883
			c0-3-0.574-5.08-1.723-6.24s-3.141-1.74-5.977-1.74c-2.18,0-4.049,0.146-5.607,0.439c-1.559,0.293-3.357,0.744-5.396,1.354
			c-0.492,0.164-0.896,0.153-1.213-0.035c-0.316-0.188-0.475-0.48-0.475-0.879v-2.813c0-0.585,0.34-1.02,1.02-1.301
			c1.102-0.492,2.736-1.002,4.904-1.529s4.424-0.791,6.768-0.791c9.352,0,14.027,4.512,14.027,13.535V134.586z M685.6,132.231
			v-13.992h-5.344c-2.273,0-4.09,0.123-5.449,0.369s-2.443,0.65-3.252,1.213s-1.383,1.271-1.723,2.127
			c-0.34,0.856-0.51,1.951-0.51,3.287v0.633c0,1.688,0.264,3.041,0.791,4.061s1.477,1.764,2.848,2.232
			c1.371,0.469,3.275,0.703,5.713,0.703c0.961,0,1.887-0.029,2.777-0.088c0.891-0.058,1.693-0.135,2.408-0.229
			C684.574,132.454,685.154,132.349,685.6,132.231z"/>
		<path fill="#FFFFFF" d="M714.111,137.821c-2.438,0-4.635-0.404-6.592-1.213s-3.586-1.974-4.887-3.498
			c-1.301-1.523-2.268-3.34-2.9-5.449s-0.949-4.547-0.949-7.313v-5.625c0-3.633,0.568-6.755,1.705-9.369
			c1.137-2.613,2.859-4.623,5.168-6.029s5.127-2.109,8.455-2.109c1.969,0,3.82,0.241,5.555,0.721
			c1.734,0.48,3.023,0.967,3.867,1.459c0.422,0.234,0.697,0.439,0.826,0.615s0.193,0.475,0.193,0.896v2.566
			c0,1.008-0.551,1.324-1.652,0.949c-3.117-1.102-6.047-1.652-8.789-1.652c-6,0-9,3.985-9,11.953v5.625
			c0,3.961,0.768,6.943,2.303,8.947s3.768,3.006,6.697,3.006c2.742,0,5.672-0.55,8.789-1.652c1.102-0.398,1.652-0.093,1.652,0.914
			v2.602c0,0.422-0.07,0.727-0.211,0.914c-0.141,0.188-0.41,0.387-0.809,0.598c-0.914,0.492-2.221,0.973-3.92,1.441
			S716.08,137.821,714.111,137.821z"/>
		<path fill="#FFFFFF" d="M752.713,136.239c0,0.703-0.434,1.113-1.301,1.23c-1.594,0.234-3.152,0.352-4.676,0.352
			c-3.516,0-6.023-0.662-7.523-1.986c-1.5-1.324-2.25-3.873-2.25-7.646v-25.137l-6.996-0.773c-0.914-0.07-1.371-0.504-1.371-1.301
			v-1.969c0-0.844,0.457-1.266,1.371-1.266h6.996v-7.066c0-0.796,0.422-1.277,1.266-1.441l3.762-0.563h0.211
			c0.328,0,0.592,0.111,0.791,0.334c0.199,0.223,0.299,0.51,0.299,0.861v7.875h7.77c0.398,0,0.738,0.141,1.02,0.422
			s0.422,0.621,0.422,1.02v2.426c0,0.399-0.152,0.738-0.457,1.02s-0.633,0.422-0.984,0.422h-7.77v25.137
			c0,1.922,0.27,3.159,0.809,3.709c0.539,0.551,1.559,0.826,3.059,0.826h4.043c1.008,0,1.512,0.34,1.512,1.02V136.239z"/>
		<path fill="#FFFFFF" d="M758.127,122.774v-23.59c0-0.398,0.135-0.738,0.404-1.02s0.615-0.422,1.037-0.422h3.445
			c0.398,0,0.738,0.141,1.02,0.422s0.422,0.621,0.422,1.02v23.59c0,3.539,0.65,6.035,1.951,7.488c1.301,1.454,3.428,2.18,6.381,2.18
			c1.102,0,2.59-0.128,4.465-0.387c1.875-0.258,3.492-0.563,4.852-0.914V99.184c0-0.375,0.135-0.708,0.404-1.002
			c0.27-0.293,0.615-0.439,1.037-0.439h3.516c0.398,0,0.727,0.141,0.984,0.422s0.387,0.621,0.387,1.02v34.699
			c0,0.891-0.434,1.465-1.301,1.723c-5.766,1.477-10.734,2.215-14.906,2.215c-3.539,0-6.352-0.585-8.438-1.758
			c-2.086-1.172-3.551-2.853-4.395-5.045C758.549,128.827,758.127,126.079,758.127,122.774z"/>
		<path fill="#FFFFFF" d="M824.186,134.586c0,0.891-0.363,1.418-1.09,1.582c-1.875,0.54-3.768,0.949-5.678,1.23
			s-4.072,0.422-6.486,0.422c-5.602,0-9.627-0.943-12.076-2.83c-2.449-1.886-3.674-4.904-3.674-9.053v-0.633
			c0-2.695,0.568-4.898,1.705-6.609c1.137-1.71,2.977-2.982,5.52-3.814c2.543-0.832,5.912-1.248,10.107-1.248h5.344v-2.883
			c0-3-0.574-5.08-1.723-6.24s-3.141-1.74-5.977-1.74c-2.18,0-4.049,0.146-5.607,0.439c-1.559,0.293-3.357,0.744-5.396,1.354
			c-0.492,0.164-0.896,0.153-1.213-0.035c-0.316-0.188-0.475-0.48-0.475-0.879v-2.813c0-0.585,0.34-1.02,1.02-1.301
			c1.102-0.492,2.736-1.002,4.904-1.529s4.424-0.791,6.768-0.791c9.352,0,14.027,4.512,14.027,13.535V134.586z M817.857,132.231
			v-13.992h-5.344c-2.273,0-4.09,0.123-5.449,0.369s-2.443,0.65-3.252,1.213s-1.383,1.271-1.723,2.127
			c-0.34,0.856-0.51,1.951-0.51,3.287v0.633c0,1.688,0.264,3.041,0.791,4.061s1.477,1.764,2.848,2.232
			c1.371,0.469,3.275,0.703,5.713,0.703c0.961,0,1.887-0.029,2.777-0.088c0.891-0.058,1.693-0.135,2.408-0.229
			C816.832,132.454,817.412,132.349,817.857,132.231z"/>
		<path fill="#FFFFFF" d="M852.275,136.239c0,0.703-0.434,1.113-1.301,1.23c-1.594,0.234-3.152,0.352-4.676,0.352
			c-3.516,0-6.023-0.662-7.523-1.986c-1.5-1.324-2.25-3.873-2.25-7.646v-25.137l-6.996-0.773c-0.914-0.07-1.371-0.504-1.371-1.301
			v-1.969c0-0.844,0.457-1.266,1.371-1.266h6.996v-7.066c0-0.796,0.422-1.277,1.266-1.441l3.762-0.563h0.211
			c0.328,0,0.592,0.111,0.791,0.334c0.199,0.223,0.299,0.51,0.299,0.861v7.875h7.77c0.398,0,0.738,0.141,1.02,0.422
			s0.422,0.621,0.422,1.02v2.426c0,0.399-0.152,0.738-0.457,1.02s-0.633,0.422-0.984,0.422h-7.77v25.137
			c0,1.922,0.27,3.159,0.809,3.709c0.539,0.551,1.559,0.826,3.059,0.826h4.043c1.008,0,1.512,0.34,1.512,1.02V136.239z"/>
		<path fill="#FFFFFF" d="M887.748,120.278c0,5.391-1.377,9.663-4.131,12.814c-2.754,3.152-6.721,4.729-11.9,4.729
			c-5.156,0-9.111-1.576-11.865-4.729c-2.754-3.152-4.131-7.423-4.131-12.814v-5.484c0-5.414,1.377-9.697,4.131-12.85
			c2.754-3.152,6.709-4.729,11.865-4.729c5.18,0,9.146,1.577,11.9,4.729c2.754,3.152,4.131,7.436,4.131,12.85V120.278z
			 M881.42,120.278v-5.484c0-2.508-0.346-4.658-1.037-6.451s-1.758-3.169-3.199-4.131c-1.441-0.961-3.264-1.441-5.467-1.441
			c-3.258,0-5.684,1.049-7.277,3.146c-1.594,2.098-2.391,5.057-2.391,8.877v5.484c0,8.016,3.223,12.023,9.668,12.023
			c3.258,0,5.689-1.042,7.295-3.129C880.617,127.086,881.42,124.122,881.42,120.278z"/>
		<path fill="#FFFFFF" d="M909.51,97.145c1.898,0,3.527,0.118,4.887,0.352c0.516,0.094,0.85,0.252,1.002,0.475
			c0.152,0.223,0.229,0.568,0.229,1.037v2.602c0,0.492-0.094,0.826-0.281,1.002s-0.551,0.252-1.09,0.229
			c-1.641-0.093-3.223-0.141-4.746-0.141c-3,0-5.859,0.364-8.578,1.09v32.098c0,0.375-0.146,0.709-0.439,1.002
			c-0.293,0.293-0.627,0.439-1.002,0.439h-3.516c-0.352,0-0.668-0.141-0.949-0.422s-0.422-0.621-0.422-1.02v-34.84
			c0-0.891,0.434-1.464,1.301-1.723c2.742-0.773,5.197-1.33,7.365-1.67C905.438,97.315,907.518,97.145,909.51,97.145z"/>
		<path fill="#FFFFFF" d="M931.799,132.442c5.227,0,7.84-1.828,7.84-5.484c0-1.125-0.375-2.086-1.125-2.883
			c-0.75-0.796-2.168-1.734-4.254-2.813l-7.277-3.727c-2.391-1.266-4.213-2.742-5.467-4.43s-1.881-3.714-1.881-6.082
			c0-2.484,0.645-4.447,1.934-5.889s2.953-2.455,4.992-3.041c2.039-0.585,4.313-0.879,6.82-0.879c1.945,0,3.885,0.211,5.818,0.633
			s3.357,0.891,4.271,1.406c0.375,0.211,0.633,0.381,0.773,0.51c0.141,0.129,0.211,0.381,0.211,0.756v2.953
			c0,0.422-0.146,0.733-0.439,0.932c-0.293,0.199-0.697,0.206-1.213,0.018c-1.336-0.515-2.889-0.943-4.658-1.283
			c-1.77-0.339-3.357-0.51-4.764-0.51c-2.25,0-4.049,0.281-5.396,0.844s-2.021,1.723-2.021,3.48c0,1.219,0.387,2.256,1.16,3.111
			c0.773,0.856,2.039,1.74,3.797,2.654l7.137,3.656c2.016,1.032,3.598,2.074,4.746,3.129s1.963,2.157,2.443,3.305
			c0.48,1.148,0.721,2.438,0.721,3.867c0,2.461-0.609,4.53-1.828,6.205c-1.219,1.676-2.895,2.918-5.027,3.727
			s-4.57,1.213-7.313,1.213c-2.086,0-4.131-0.241-6.135-0.721s-3.557-1.002-4.658-1.564c-0.68-0.352-1.02-0.785-1.02-1.301v-2.953
			c0-0.422,0.152-0.738,0.457-0.949s0.703-0.211,1.195,0C925.225,131.739,928.611,132.442,931.799,132.442z"/>
	</g>
	<text transform="matrix(1 0 0 1 199 969)" font-family="'MyriadPro-Regular'" font-size="12">../img/TESTBG.svg</text>
	<text transform="matrix(1 0 0 1 199 969)" font-family="'MyriadPro-Regular'" font-size="12">../img/TESTBG.svg</text>
</g>
</svg>
