<?xml version="1.0" encoding="utf-8"?>
<!-- Generator: Adobe Illustrator 15.1.0, SVG Export Plug-In . SVG Version: 6.00 Build 0)  -->
<!DOCTYPE svg PUBLIC "-//W3C//DTD SVG 1.1//EN" "http://www.w3.org/Graphics/SVG/1.1/DTD/svg11.dtd">
<svg version="1.1" id="Layer_1" xmlns="http://www.w3.org/2000/svg" xmlns:xlink="http://www.w3.org/1999/xlink" x="0px" y="0px"
	 width="32.091px" height="31px" viewBox="0 0 32.091 31" enable-background="new 0 0 32.091 31" xml:space="preserve">
<path fill="#F2F2F2" stroke="#000000" stroke-miterlimit="10" d="M31.591,27.777c0,1.504-1.219,2.723-2.723,2.723H3.314
	c-1.504,0-2.723-1.219-2.723-2.723V3.223C0.591,1.719,1.81,0.5,3.314,0.5h25.554c1.504,0,2.723,1.219,2.723,2.723V27.777z"/>
<polygon fill="#666666" stroke="#000000" stroke-miterlimit="10" points="27.875,13.09 24.722,7.629 20.947,8.786 19.693,3.5 
	13.387,3.5 12.367,8.789 7.742,7.18 4.589,12.578 8.08,15.962 5.324,18.878 8.477,24.331 12.383,23.555 13.147,27.5 19.453,27.5 
	20.926,23.553 24.641,24.34 27.794,18.831 25.207,15.955 "/>
<circle fill="#FFFFFF" stroke="#000000" stroke-miterlimit="10" cx="16.232" cy="15.029" r="2.972"/>
</svg>
